<?xml version="1.0" encoding="UTF-8"?>
<!DOCTYPE svg PUBLIC "-//W3C//DTD SVG 1.1//EN" "http://www.w3.org/Graphics/SVG/1.1/DTD/svg11.dtd">
<svg xmlns="http://www.w3.org/2000/svg" version="1.1" width="613px" height="407px" style="shape-rendering:geometricPrecision; text-rendering:geometricPrecision; image-rendering:optimizeQuality; fill-rule:evenodd; clip-rule:evenodd" xmlns:xlink="http://www.w3.org/1999/xlink">
<g><path style="opacity:0.796" fill="#7a3537" d="M 152.5,137.5 C 176.5,137.5 200.5,137.5 224.5,137.5C 213.5,138.167 202.5,138.833 191.5,139.5C 191.167,139.5 190.833,139.5 190.5,139.5C 179.833,139.5 169.167,139.5 158.5,139.5C 155.167,139.5 151.833,139.5 148.5,139.5C 149.833,138.833 151.167,138.167 152.5,137.5 Z"/></g>
<g><path style="opacity:0.837" fill="#9b3334" d="M 224.5,137.5 C 228.817,137.083 232.817,137.75 236.5,139.5C 221.5,139.5 206.5,139.5 191.5,139.5C 202.5,138.833 213.5,138.167 224.5,137.5 Z"/></g>
<g><path style="opacity:1" fill="#93161f" d="M 138.5,140.5 C 139.833,140.5 141.167,140.5 142.5,140.5C 142.783,141.289 143.283,141.956 144,142.5C 144.794,148.308 145.294,154.142 145.5,160C 144.169,166.665 144.169,173.165 145.5,179.5C 145.072,182.412 144.405,185.245 143.5,188C 143.832,190.492 144.832,192.658 146.5,194.5C 146.256,197.35 145.923,200.183 145.5,203C 147.658,204.457 149.491,206.29 151,208.5C 151.287,206.109 151.787,203.776 152.5,201.5C 151.39,199.504 151.724,197.671 153.5,196C 152.742,194.636 153.242,193.469 155,192.5C 155.452,188.281 156.952,184.614 159.5,181.5C 160.045,184.356 159.878,187.356 159,190.5C 156.464,195.522 154.297,200.689 152.5,206C 152.469,209.463 152.803,212.963 153.5,216.5C 151.061,218.414 149.394,220.747 148.5,223.5C 146.883,224.589 146.05,226.256 146,228.5C 144.658,227.098 143.824,227.431 143.5,229.5C 143.608,230.442 143.941,231.275 144.5,232C 141.588,233.373 138.754,234.873 136,236.5C 135.833,236.167 135.667,235.833 135.5,235.5C 136.43,232.603 138.097,230.27 140.5,228.5C 139.926,226.941 139.26,225.441 138.5,224C 139.319,195.819 139.319,167.985 138.5,140.5 Z"/></g>
<g><path style="opacity:1" fill="#b62a2c" d="M 190.5,139.5 C 190.833,139.5 191.167,139.5 191.5,139.5C 206.5,139.5 221.5,139.5 236.5,139.5C 239.518,140.353 241.351,142.353 242,145.5C 242.667,183.833 242.667,222.167 242,260.5C 241.777,262.881 240.61,264.547 238.5,265.5C 237.391,265.557 236.391,265.89 235.5,266.5C 235.5,266.167 235.5,265.833 235.5,265.5C 236.868,264.694 238.201,263.694 239.5,262.5C 240.5,228.173 240.833,193.84 240.5,159.5C 241.113,153.729 240.446,148.396 238.5,143.5C 237.077,141.455 235.077,140.455 232.5,140.5C 229.5,140.5 226.5,140.5 223.5,140.5C 222.167,140.5 220.833,140.5 219.5,140.5C 215.833,140.5 212.167,140.5 208.5,140.5C 201.473,139.774 194.807,140.774 188.5,143.5C 188.167,143.833 187.833,144.167 187.5,144.5C 189.398,145.734 191.065,145.401 192.5,143.5C 193.382,144.76 194.382,145.926 195.5,147C 194.062,147.219 192.729,147.719 191.5,148.5C 193.631,149.169 195.631,149.835 197.5,150.5C 190.167,150.5 182.833,150.5 175.5,150.5C 175.631,146.779 174.631,143.446 172.5,140.5C 178.69,140.823 184.69,140.49 190.5,139.5 Z"/></g>
<g><path style="opacity:1" fill="#ef1d26" d="M 223.5,140.5 C 226.5,140.5 229.5,140.5 232.5,140.5C 230.958,141.163 229.291,141.83 227.5,142.5C 227.808,143.308 228.308,143.975 229,144.5C 229.667,170.5 229.667,196.5 229,222.5C 225.675,225.365 226.175,227.365 230.5,228.5C 231.702,230.05 231.868,233.717 231,239.5C 230.103,242.49 229.269,245.49 228.5,248.5C 229.165,251.838 230.832,254.505 233.5,256.5C 231.5,257.167 229.5,257.833 227.5,258.5C 228.855,260.861 230.188,263.194 231.5,265.5C 227.486,265.666 223.486,265.499 219.5,265C 218.692,264.692 218.025,264.192 217.5,263.5C 218.936,262.066 220.602,260.9 222.5,260C 217.331,257.8 217.331,255.467 222.5,253C 221.565,250.619 221.232,248.119 221.5,245.5C 224.588,245.388 226.588,243.888 227.5,241C 226.624,235.194 225.957,229.361 225.5,223.5C 225.667,196.498 225.5,169.498 225,142.5C 224.283,141.956 223.783,141.289 223.5,140.5 Z"/></g>
<g><path style="opacity:0.851" fill="#613033" d="M 152.5,137.5 C 151.167,138.167 149.833,138.833 148.5,139.5C 141.313,139.175 134.313,139.509 127.5,140.5C 125.251,141.08 123.585,142.413 122.5,144.5C 122.167,144.5 121.833,144.5 121.5,144.5C 122.684,141.151 125.017,138.985 128.5,138C 136.493,137.5 144.493,137.334 152.5,137.5 Z"/></g>
<g><path style="opacity:1" fill="#87151e" d="M 148.5,139.5 C 151.833,139.5 155.167,139.5 158.5,139.5C 157.791,140.404 156.791,140.737 155.5,140.5C 151.167,140.5 146.833,140.5 142.5,140.5C 141.167,140.5 139.833,140.5 138.5,140.5C 136.712,140.215 135.045,140.548 133.5,141.5C 133.833,142.167 134.167,142.833 134.5,143.5C 134.123,171.022 133.123,198.522 131.5,226C 131.538,229.888 132.704,230.388 135,227.5C 135.167,228 135.333,228.5 135.5,229C 132.903,233.547 132.903,238.047 135.5,242.5C 135.167,243.5 134.833,244.5 134.5,245.5C 133.813,243.726 132.98,242.059 132,240.5C 131.503,242.81 131.337,245.143 131.5,247.5C 132.833,247.5 134.167,247.5 135.5,247.5C 135.54,250.881 135.207,254.214 134.5,257.5C 135.873,257.343 137.207,257.51 138.5,258C 136.715,259.163 134.715,259.83 132.5,260C 134.677,261.186 135.677,263.019 135.5,265.5C 136.791,265.263 137.791,265.596 138.5,266.5C 134.833,266.5 131.167,266.5 127.5,266.5C 126.385,264.693 125.719,262.693 125.5,260.5C 126.923,257.725 127.589,254.725 127.5,251.5C 128.5,251.5 129.5,251.5 130.5,251.5C 130.35,248.204 129.35,245.204 127.5,242.5C 128.404,240.083 129.071,237.583 129.5,235C 127.077,231.567 127.077,228.234 129.5,225C 127.952,221.921 127.285,218.587 127.5,215C 128.507,190.083 128.507,165.25 127.5,140.5C 134.313,139.509 141.313,139.175 148.5,139.5 Z"/></g>
<g><path style="opacity:1" fill="#8d161f" d="M 138.5,140.5 C 139.319,167.985 139.319,195.819 138.5,224C 139.26,225.441 139.926,226.941 140.5,228.5C 138.097,230.27 136.43,232.603 135.5,235.5C 135.667,235.833 135.833,236.167 136,236.5C 138.754,234.873 141.588,233.373 144.5,232C 143.941,231.275 143.608,230.442 143.5,229.5C 143.824,227.431 144.658,227.098 146,228.5C 146.05,226.256 146.883,224.589 148.5,223.5C 148.5,223.833 148.5,224.167 148.5,224.5C 147.632,227.449 146.632,230.449 145.5,233.5C 144.144,235.27 142.311,236.603 140,237.5C 140.83,242.178 140.663,246.678 139.5,251C 139.905,251.945 140.572,252.612 141.5,253C 145.608,253.136 149.608,253.302 153.5,253.5C 156.769,253.077 159.936,253.077 163,253.5C 164.626,252.711 166.126,251.711 167.5,250.5C 165.04,247.476 162.04,246.476 158.5,247.5C 157.5,246.833 156.5,246.167 155.5,245.5C 153.149,248.21 151.149,247.877 149.5,244.5C 149.624,243.893 149.957,243.56 150.5,243.5C 159.75,244.472 169.083,244.805 178.5,244.5C 174.979,245.166 171.313,245.833 167.5,246.5C 168.167,247.167 168.833,247.833 169.5,248.5C 168.167,249.833 168.167,251.167 169.5,252.5C 168.757,253.182 168.091,253.849 167.5,254.5C 161.158,254.334 154.825,254.5 148.5,255C 147.464,256.617 146.297,256.784 145,255.5C 142.443,259.051 143.276,261.384 147.5,262.5C 146.271,263.281 144.938,263.781 143.5,264C 142.402,264.77 142.402,265.603 143.5,266.5C 141.833,266.5 140.167,266.5 138.5,266.5C 137.791,265.596 136.791,265.263 135.5,265.5C 135.677,263.019 134.677,261.186 132.5,260C 134.715,259.83 136.715,259.163 138.5,258C 137.207,257.51 135.873,257.343 134.5,257.5C 135.207,254.214 135.54,250.881 135.5,247.5C 134.167,247.5 132.833,247.5 131.5,247.5C 131.337,245.143 131.503,242.81 132,240.5C 132.98,242.059 133.813,243.726 134.5,245.5C 134.833,244.5 135.167,243.5 135.5,242.5C 132.903,238.047 132.903,233.547 135.5,229C 135.333,228.5 135.167,228 135,227.5C 132.704,230.388 131.538,229.888 131.5,226C 133.123,198.522 134.123,171.022 134.5,143.5C 134.167,142.833 133.833,142.167 133.5,141.5C 135.045,140.548 136.712,140.215 138.5,140.5 Z"/></g>
<g><path style="opacity:1" fill="#ea1c25" d="M 219.5,140.5 C 220.833,140.5 222.167,140.5 223.5,140.5C 223.783,141.289 224.283,141.956 225,142.5C 225.5,169.498 225.667,196.498 225.5,223.5C 223.5,223.167 221.5,222.833 219.5,222.5C 219.153,218.904 219.82,215.571 221.5,212.5C 220.976,210.617 220.309,208.784 219.5,207C 220.814,203.932 221.814,200.765 222.5,197.5C 221.194,193.635 221.194,189.802 222.5,186C 218.232,183.72 216.732,180.22 218,175.5C 218.583,177.002 219.416,178.335 220.5,179.5C 220.833,178.667 221.167,177.833 221.5,177C 219.815,168.279 218.981,159.445 219,150.5C 217.049,148.863 217.216,147.363 219.5,146C 218.833,145.333 218.167,144.667 217.5,144C 218.973,143.29 219.64,142.124 219.5,140.5 Z"/></g>
<g><path style="opacity:1" fill="#a41720" d="M 158.5,139.5 C 169.167,139.5 179.833,139.5 190.5,139.5C 184.69,140.49 178.69,140.823 172.5,140.5C 170.143,140.337 167.81,140.503 165.5,141C 167.303,141.637 168.636,142.803 169.5,144.5C 167.89,146.495 166.557,148.661 165.5,151C 166.167,151.333 166.833,151.667 167.5,152C 166.027,152.71 165.36,153.876 165.5,155.5C 166.5,155.5 167.5,155.5 168.5,155.5C 168.5,157.5 168.5,159.5 168.5,161.5C 169.833,161.5 171.167,161.5 172.5,161.5C 170.296,162.445 167.962,162.611 165.5,162C 162.898,164.803 162.898,167.636 165.5,170.5C 164.675,171.386 163.675,171.719 162.5,171.5C 162.167,173.5 161.833,175.5 161.5,177.5C 159.5,178.167 157.5,178.833 155.5,179.5C 155.402,183.964 154.569,188.297 153,192.5C 146.537,196.362 146.037,195.529 151.5,190C 150.789,187.204 150.122,184.37 149.5,181.5C 150.491,179.677 151.824,178.177 153.5,177C 152.833,176.667 152.167,176.333 151.5,176C 153.462,165.758 154.128,155.258 153.5,144.5C 151.654,144.778 150.32,144.111 149.5,142.5C 151.631,141.831 153.631,141.165 155.5,140.5C 156.791,140.737 157.791,140.404 158.5,139.5 Z"/></g>
<g><path style="opacity:1" fill="#b51a24" d="M 172.5,140.5 C 174.631,143.446 175.631,146.779 175.5,150.5C 182.833,150.5 190.167,150.5 197.5,150.5C 199.578,151.743 201.412,153.41 203,155.5C 203.61,158.827 204.11,162.161 204.5,165.5C 203.503,165.53 202.836,165.03 202.5,164C 201.915,159.729 200.582,155.729 198.5,152C 190.812,151.169 183.145,151.335 175.5,152.5C 174.602,155.573 173.602,158.573 172.5,161.5C 171.167,161.5 169.833,161.5 168.5,161.5C 168.5,159.5 168.5,157.5 168.5,155.5C 167.5,155.5 166.5,155.5 165.5,155.5C 165.36,153.876 166.027,152.71 167.5,152C 166.833,151.667 166.167,151.333 165.5,151C 166.557,148.661 167.89,146.495 169.5,144.5C 168.636,142.803 167.303,141.637 165.5,141C 167.81,140.503 170.143,140.337 172.5,140.5 Z"/></g>
<g><path style="opacity:1" fill="#f61d26" d="M 232.5,140.5 C 235.077,140.455 237.077,141.455 238.5,143.5C 237.594,145.019 236.594,146.685 235.5,148.5C 235.977,149.478 236.643,150.311 237.5,151C 236.833,172.667 236.167,194.333 235.5,216C 238.044,217.563 238.044,219.063 235.5,220.5C 236.84,221.688 237.507,223.188 237.5,225C 236.869,235.524 236.202,246.024 235.5,256.5C 235.709,257.086 236.043,257.586 236.5,258C 234.5,258.833 232.5,259.667 230.5,260.5C 233.428,261.484 236.428,261.817 239.5,261.5C 239.672,259.508 239.005,257.842 237.5,256.5C 238.789,250.673 239.456,244.673 239.5,238.5C 239.388,230.748 239.055,223.248 238.5,216C 239.161,197.069 239.827,178.236 240.5,159.5C 240.833,193.84 240.5,228.173 239.5,262.5C 238.201,263.694 236.868,264.694 235.5,265.5C 234.167,265.5 232.833,265.5 231.5,265.5C 230.188,263.194 228.855,260.861 227.5,258.5C 229.5,257.833 231.5,257.167 233.5,256.5C 230.832,254.505 229.165,251.838 228.5,248.5C 229.269,245.49 230.103,242.49 231,239.5C 231.868,233.717 231.702,230.05 230.5,228.5C 226.175,227.365 225.675,225.365 229,222.5C 229.667,196.5 229.667,170.5 229,144.5C 228.308,143.975 227.808,143.308 227.5,142.5C 229.291,141.83 230.958,141.163 232.5,140.5 Z"/></g>
<g><path style="opacity:1" fill="#fa1e27" d="M 238.5,143.5 C 240.446,148.396 241.113,153.729 240.5,159.5C 239.827,178.236 239.161,197.069 238.5,216C 239.055,223.248 239.388,230.748 239.5,238.5C 239.456,244.673 238.789,250.673 237.5,256.5C 239.005,257.842 239.672,259.508 239.5,261.5C 236.428,261.817 233.428,261.484 230.5,260.5C 232.5,259.667 234.5,258.833 236.5,258C 236.043,257.586 235.709,257.086 235.5,256.5C 236.202,246.024 236.869,235.524 237.5,225C 237.507,223.188 236.84,221.688 235.5,220.5C 238.044,219.063 238.044,217.563 235.5,216C 236.167,194.333 236.833,172.667 237.5,151C 236.643,150.311 235.977,149.478 235.5,148.5C 236.594,146.685 237.594,145.019 238.5,143.5 Z"/></g>
<g><path style="opacity:1" fill="#9b161f" d="M 142.5,140.5 C 146.833,140.5 151.167,140.5 155.5,140.5C 153.631,141.165 151.631,141.831 149.5,142.5C 150.32,144.111 151.654,144.778 153.5,144.5C 154.128,155.258 153.462,165.758 151.5,176C 152.167,176.333 152.833,176.667 153.5,177C 151.824,178.177 150.491,179.677 149.5,181.5C 150.122,184.37 150.789,187.204 151.5,190C 146.037,195.529 146.537,196.362 153,192.5C 154.569,188.297 155.402,183.964 155.5,179.5C 157.5,178.833 159.5,178.167 161.5,177.5C 161.5,178.833 161.5,180.167 161.5,181.5C 160.833,181.5 160.167,181.5 159.5,181.5C 156.952,184.614 155.452,188.281 155,192.5C 153.242,193.469 152.742,194.636 153.5,196C 151.724,197.671 151.39,199.504 152.5,201.5C 151.787,203.776 151.287,206.109 151,208.5C 149.491,206.29 147.658,204.457 145.5,203C 145.923,200.183 146.256,197.35 146.5,194.5C 144.832,192.658 143.832,190.492 143.5,188C 144.405,185.245 145.072,182.412 145.5,179.5C 144.169,173.165 144.169,166.665 145.5,160C 145.294,154.142 144.794,148.308 144,142.5C 143.283,141.956 142.783,141.289 142.5,140.5 Z"/></g>
<g><path style="opacity:1" fill="#81141c" d="M 127.5,140.5 C 128.507,165.25 128.507,190.083 127.5,215C 127.285,218.587 127.952,221.921 129.5,225C 127.077,228.234 127.077,231.567 129.5,235C 129.071,237.583 128.404,240.083 127.5,242.5C 129.35,245.204 130.35,248.204 130.5,251.5C 129.5,251.5 128.5,251.5 127.5,251.5C 127.589,254.725 126.923,257.725 125.5,260.5C 125.719,262.693 126.385,264.693 127.5,266.5C 125.871,265.375 124.371,264.041 123,262.5C 122.5,223.168 122.333,183.835 122.5,144.5C 123.585,142.413 125.251,141.08 127.5,140.5 Z"/></g>
<g><path style="opacity:1" fill="#d51c24" d="M 208.5,140.5 C 208.393,142.379 208.893,142.712 210,141.5C 211.836,143.131 211.336,143.798 208.5,143.5C 208.5,144.5 208.5,145.5 208.5,146.5C 206.077,146.576 204.244,145.576 203,143.5C 202.5,143.833 202,144.167 201.5,144.5C 203.061,147.889 205.395,150.389 208.5,152C 207.305,153.533 207.305,155.033 208.5,156.5C 207.349,157.731 206.183,157.731 205,156.5C 204.74,160.684 205.407,164.684 207,168.5C 207.333,167.5 207.667,166.5 208,165.5C 208.333,165.833 208.667,166.167 209,166.5C 208.754,170.083 209.087,173.75 210,177.5C 210.333,176.833 210.667,176.167 211,175.5C 211.381,178.041 212.214,180.374 213.5,182.5C 212.364,184.318 211.697,186.318 211.5,188.5C 212.25,193.499 212.916,198.499 213.5,203.5C 212.833,203.167 212.167,202.833 211.5,202.5C 211.5,201.833 211.5,201.167 211.5,200.5C 210.779,195.83 209.946,191.163 209,186.5C 208.617,185.944 208.117,185.611 207.5,185.5C 206.505,178.844 205.505,172.177 204.5,165.5C 204.11,162.161 203.61,158.827 203,155.5C 201.412,153.41 199.578,151.743 197.5,150.5C 195.631,149.835 193.631,149.169 191.5,148.5C 192.729,147.719 194.062,147.219 195.5,147C 194.382,145.926 193.382,144.76 192.5,143.5C 191.065,145.401 189.398,145.734 187.5,144.5C 187.833,144.167 188.167,143.833 188.5,143.5C 194.807,140.774 201.473,139.774 208.5,140.5 Z"/></g>
<g><path style="opacity:0.991" fill="#343434" d="M 298.5,193.5 C 294.167,193.5 289.833,193.5 285.5,193.5C 285.816,189.475 285.983,185.475 286,181.5C 283.333,180.167 280.667,180.167 278,181.5C 278.017,185.475 278.184,189.475 278.5,193.5C 274.167,193.5 269.833,193.5 265.5,193.5C 265.5,190.833 265.5,188.167 265.5,185.5C 266.5,185.5 267.5,185.5 268.5,185.5C 271.042,174.121 273.709,162.788 276.5,151.5C 278.117,150.028 280.117,149.361 282.5,149.5C 284.693,149.326 286.527,149.993 288,151.5C 290.664,161.483 293.331,171.483 296,181.5C 299.439,185.063 300.272,189.063 298.5,193.5 Z"/></g>
<g><path style="opacity:0.989" fill="#323232" d="M 346.5,165.5 C 343.833,165.5 341.167,165.5 338.5,165.5C 338.5,163.833 338.5,162.167 338.5,160.5C 334.833,160.5 331.167,160.5 327.5,160.5C 327.244,162.792 327.577,164.959 328.5,167C 332.981,167.956 337.481,168.789 342,169.5C 343.011,168.944 343.844,168.278 344.5,167.5C 349.002,174.867 349.502,182.534 346,190.5C 344.871,192.141 343.371,193.141 341.5,193.5C 335.824,193.666 330.157,193.499 324.5,193C 320.007,189.263 318.341,184.43 319.5,178.5C 322.167,178.5 324.833,178.5 327.5,178.5C 327.5,180.833 327.5,183.167 327.5,185.5C 330.909,185.751 334.242,185.417 337.5,184.5C 338.48,181.914 338.813,179.247 338.5,176.5C 323.041,179.208 316.874,172.874 320,157.5C 325.28,151.83 331.78,149.996 339.5,152C 344.93,154.733 347.264,159.233 346.5,165.5 Z M 333.5,182.5 C 331.872,185.148 330.206,185.148 328.5,182.5C 330.167,181.334 331.834,181.334 333.5,182.5 Z"/></g>
<g><path style="opacity:0.992" fill="#323232" d="M 443.5,151.5 C 443.817,155.702 443.483,159.702 442.5,163.5C 437.516,161.62 432.182,160.62 426.5,160.5C 425.99,163.388 426.656,165.721 428.5,167.5C 429.167,167.167 429.833,166.833 430.5,166.5C 431.919,167.451 433.585,167.784 435.5,167.5C 435.5,170.5 435.5,173.5 435.5,176.5C 432.813,176.336 430.146,176.503 427.5,177C 426.565,179.381 426.232,181.881 426.5,184.5C 431.944,184.539 437.277,183.873 442.5,182.5C 442.5,186.167 442.5,189.833 442.5,193.5C 433.833,193.5 425.167,193.5 416.5,193.5C 417.42,186.545 418.087,179.545 418.5,172.5C 418.087,165.455 417.42,158.455 416.5,151.5C 425.5,151.5 434.5,151.5 443.5,151.5 Z"/></g>
<g><path style="opacity:0.991" fill="#333333" d="M 491.5,163.5 C 487.927,163.959 484.927,162.959 482.5,160.5C 482.167,164.667 481.833,168.833 481.5,173C 481.509,177.557 482.175,181.724 483.5,185.5C 483.5,188.167 483.5,190.833 483.5,193.5C 479.167,193.5 474.833,193.5 470.5,193.5C 469.955,190.002 470.788,187.002 473,184.5C 473.5,176.507 473.666,168.507 473.5,160.5C 472.5,160.5 471.5,160.5 470.5,160.5C 470.5,161.5 470.5,162.5 470.5,163.5C 468.167,163.5 465.833,163.5 463.5,163.5C 463.5,159.5 463.5,155.5 463.5,151.5C 463.962,150.12 464.962,149.453 466.5,149.5C 474.798,150.44 483.131,150.774 491.5,150.5C 491.5,154.833 491.5,159.167 491.5,163.5 Z"/></g>
<g><path style="opacity:0.935" fill="#642b2e" d="M 121.5,144.5 C 121.833,144.5 122.167,144.5 122.5,144.5C 122.333,183.835 122.5,223.168 123,262.5C 124.371,264.041 125.871,265.375 127.5,266.5C 131.167,266.5 134.833,266.5 138.5,266.5C 140.167,266.5 141.833,266.5 143.5,266.5C 171.664,267.011 199.664,267.677 227.5,268.5C 194.498,268.667 161.498,268.5 128.5,268C 125.804,267.31 123.637,265.81 122,263.5C 120.844,243.587 120.344,223.587 120.5,203.5C 120.506,183.762 120.839,164.095 121.5,144.5 Z"/></g>
<g><path style="opacity:0.274" fill="#444444" d="M 346.5,165.5 C 346.167,166.5 345.5,167.167 344.5,167.5C 343.844,168.278 343.011,168.944 342,169.5C 337.481,168.789 332.981,167.956 328.5,167C 327.577,164.959 327.244,162.792 327.5,160.5C 331.167,160.5 334.833,160.5 338.5,160.5C 338.5,162.167 338.5,163.833 338.5,165.5C 341.167,165.5 343.833,165.5 346.5,165.5 Z M 329.5,164.5 C 330.473,164.987 331.473,165.487 332.5,166C 330.843,166.725 329.843,166.225 329.5,164.5 Z"/></g>
<g><path style="opacity:0.343" fill="#464646" d="M 394.5,156.5 C 395.266,158.684 395.933,161.018 396.5,163.5C 395.968,165.741 394.635,167.241 392.5,168C 394.317,169.8 395.484,171.966 396,174.5C 396.812,178.689 396.645,182.689 395.5,186.5C 397.267,178.535 394.933,172.369 388.5,168C 384.247,167.8 380.08,167.3 376,166.5C 375.349,164.765 375.515,163.098 376.5,161.5C 379.768,160.513 383.102,160.18 386.5,160.5C 386.5,162.167 386.5,163.833 386.5,165.5C 389.167,165.5 391.833,165.5 394.5,165.5C 394.5,162.5 394.5,159.5 394.5,156.5 Z M 377.5,164.5 C 378.473,164.987 379.473,165.487 380.5,166C 378.843,166.725 377.843,166.225 377.5,164.5 Z"/></g>
<g><path style="opacity:0.466" fill="#484848" d="M 443.5,151.5 C 434.5,151.5 425.5,151.5 416.5,151.5C 417.42,158.455 418.087,165.455 418.5,172.5C 418.087,179.545 417.42,186.545 416.5,193.5C 425.167,193.5 433.833,193.5 442.5,193.5C 442.5,189.833 442.5,186.167 442.5,182.5C 437.277,183.873 431.944,184.539 426.5,184.5C 426.232,181.881 426.565,179.381 427.5,177C 430.146,176.503 432.813,176.336 435.5,176.5C 435.5,173.5 435.5,170.5 435.5,167.5C 433.585,167.784 431.919,167.451 430.5,166.5C 429.377,165.243 428.711,165.576 428.5,167.5C 426.656,165.721 425.99,163.388 426.5,160.5C 432.182,160.62 437.516,161.62 442.5,163.5C 437.475,166.56 435.309,171.226 436,177.5C 434.301,178.406 432.467,178.739 430.5,178.5C 430.52,180.143 429.853,181.476 428.5,182.5C 429.5,182.833 430.5,183.167 431.5,183.5C 442.587,177.412 446.587,180.578 443.5,193C 442.381,194.876 440.714,195.709 438.5,195.5C 438.863,197.911 437.863,199.411 435.5,200C 429.615,200.504 423.615,200.337 417.5,199.5C 415.271,200.577 412.937,201.244 410.5,201.5C 409.483,197.058 409.983,192.725 412,188.5C 412.167,184.833 412.333,181.167 412.5,177.5C 412.429,170.064 411.762,162.731 410.5,155.5C 411.552,155.649 412.552,155.483 413.5,155C 414.369,152.421 416.035,150.588 418.5,149.5C 426.962,150.139 435.296,150.806 443.5,151.5 Z M 430.5,166.5 C 429.833,166.833 429.167,167.167 428.5,167.5C 428.711,165.576 429.377,165.243 430.5,166.5 Z"/></g>
<g><path style="opacity:0.386" fill="#4a4a4a" d="M 491.5,163.5 C 488.067,164.399 485.234,166.399 483,169.5C 482.219,174.917 482.385,180.25 483.5,185.5C 482.175,181.724 481.509,177.557 481.5,173C 481.833,168.833 482.167,164.667 482.5,160.5C 484.927,162.959 487.927,163.959 491.5,163.5 Z"/></g>
<g><path style="opacity:0.683" fill="#4a4a4a" d="M 463.5,151.5 C 463.5,155.5 463.5,159.5 463.5,163.5C 465.833,163.5 468.167,163.5 470.5,163.5C 470.5,162.5 470.5,161.5 470.5,160.5C 471.5,160.5 472.5,160.5 473.5,160.5C 473.666,168.507 473.5,176.507 473,184.5C 470.788,187.002 469.955,190.002 470.5,193.5C 474.833,193.5 479.167,193.5 483.5,193.5C 483.5,190.833 483.5,188.167 483.5,185.5C 485.378,188.285 485.711,191.285 484.5,194.5C 483.07,194.421 481.736,194.754 480.5,195.5C 479.937,197.709 478.604,199.209 476.5,200C 473.294,200.296 470.128,200.796 467,201.5C 466.5,201.167 466,200.833 465.5,200.5C 464.913,198.727 464.58,196.894 464.5,195C 466.197,190.382 467.197,185.549 467.5,180.5C 467.221,176.82 466.888,173.153 466.5,169.5C 463.552,169.777 460.719,169.444 458,168.5C 457.333,164.833 457.333,161.167 458,157.5C 460.264,155.809 462.098,153.809 463.5,151.5 Z"/></g>
<g><path style="opacity:0.731" fill="#454545" d="M 391.5,152.5 C 385.87,151.479 380.204,151.313 374.5,152C 369.381,154.34 367.048,158.34 367.5,164C 367.233,169.236 369.233,173.236 373.5,176C 378.086,176.197 382.586,176.697 387,177.5C 387.667,179.833 387.667,182.167 387,184.5C 383.333,185.833 379.667,185.833 376,184.5C 375.505,182.527 375.338,180.527 375.5,178.5C 372.833,178.5 370.167,178.5 367.5,178.5C 366.489,184.302 368.156,189.135 372.5,193C 378.167,193.667 383.833,193.667 389.5,193C 391.323,192.003 392.99,190.836 394.5,189.5C 394.489,191.017 393.823,192.184 392.5,193C 389.167,195 385.833,197 382.5,199C 377.833,199.667 373.167,199.667 368.5,199C 363.87,196.415 361.537,192.415 361.5,187C 361.96,184.416 362.96,182.083 364.5,180C 358.841,167.632 361.841,157.966 373.5,151C 378.833,150.333 384.167,150.333 389.5,151C 390.416,151.278 391.082,151.778 391.5,152.5 Z M 377.5,181.5 C 379.346,181.222 380.68,181.889 381.5,183.5C 379.167,184.941 377.834,184.275 377.5,181.5 Z"/></g>
<g><path style="opacity:0.995" fill="#323232" d="M 391.5,152.5 C 393.262,153.262 394.262,154.596 394.5,156.5C 394.5,159.5 394.5,162.5 394.5,165.5C 391.833,165.5 389.167,165.5 386.5,165.5C 386.5,163.833 386.5,162.167 386.5,160.5C 383.102,160.18 379.768,160.513 376.5,161.5C 375.515,163.098 375.349,164.765 376,166.5C 380.08,167.3 384.247,167.8 388.5,168C 394.933,172.369 397.267,178.535 395.5,186.5C 395.737,187.791 395.404,188.791 394.5,189.5C 392.99,190.836 391.323,192.003 389.5,193C 383.833,193.667 378.167,193.667 372.5,193C 368.156,189.135 366.489,184.302 367.5,178.5C 370.167,178.5 372.833,178.5 375.5,178.5C 375.338,180.527 375.505,182.527 376,184.5C 379.667,185.833 383.333,185.833 387,184.5C 387.667,182.167 387.667,179.833 387,177.5C 382.586,176.697 378.086,176.197 373.5,176C 369.233,173.236 367.233,169.236 367.5,164C 367.048,158.34 369.381,154.34 374.5,152C 380.204,151.313 385.87,151.479 391.5,152.5 Z M 377.5,181.5 C 377.834,184.275 379.167,184.941 381.5,183.5C 380.68,181.889 379.346,181.222 377.5,181.5 Z"/></g>
<g><path style="opacity:0.268" fill="#444444" d="M 346.5,165.5 C 347.264,159.233 344.93,154.733 339.5,152C 331.78,149.996 325.28,151.83 320,157.5C 316.874,172.874 323.041,179.208 338.5,176.5C 338.813,179.247 338.48,181.914 337.5,184.5C 334.242,185.417 330.909,185.751 327.5,185.5C 327.5,183.167 327.5,180.833 327.5,178.5C 324.833,178.5 322.167,178.5 319.5,178.5C 318.341,184.43 320.007,189.263 324.5,193C 330.157,193.499 335.824,193.666 341.5,193.5C 339.396,195.099 337.396,196.932 335.5,199C 330.5,199.667 325.5,199.667 320.5,199C 315.497,196.833 313.164,192.999 313.5,187.5C 313.384,184.58 314.051,181.913 315.5,179.5C 310.76,168.133 313.427,158.966 323.5,152C 329.053,150.43 334.719,150.097 340.5,151C 346.82,154.131 348.82,158.965 346.5,165.5 Z M 333.5,182.5 C 331.834,181.334 330.167,181.334 328.5,182.5C 330.206,185.148 331.872,185.148 333.5,182.5 Z"/></g>
<g><path style="opacity:0.741" fill="#812327" d="M 204.5,165.5 C 205.505,172.177 206.505,178.844 207.5,185.5C 204.299,174.722 200.965,163.889 197.5,153C 191.5,152.333 185.5,152.333 179.5,153C 177.084,154.425 175.751,156.592 175.5,159.5C 173.692,160.918 173.025,162.918 173.5,165.5C 172.631,170.646 171.297,175.646 169.5,180.5C 167.034,181.406 166.367,182.906 167.5,185C 166.464,187.774 165.631,190.607 165,193.5C 164.174,195.405 163.007,195.739 161.5,194.5C 162.167,193.833 162.833,193.167 163.5,192.5C 163.167,190.5 162.833,188.5 162.5,186.5C 163.167,185.833 163.833,185.167 164.5,184.5C 163.23,183.712 162.23,182.712 161.5,181.5C 161.5,180.167 161.5,178.833 161.5,177.5C 161.833,175.5 162.167,173.5 162.5,171.5C 163.675,171.719 164.675,171.386 165.5,170.5C 162.898,167.636 162.898,164.803 165.5,162C 167.962,162.611 170.296,162.445 172.5,161.5C 173.602,158.573 174.602,155.573 175.5,152.5C 183.145,151.335 190.812,151.169 198.5,152C 200.582,155.729 201.915,159.729 202.5,164C 202.836,165.03 203.503,165.53 204.5,165.5 Z"/></g>
<g><path style="opacity:0.051" fill="#5b2424" d="M 175.5,159.5 C 175.125,161.698 174.458,163.698 173.5,165.5C 173.025,162.918 173.692,160.918 175.5,159.5 Z"/></g>
<g><path style="opacity:0.424" fill="#7e272b" d="M 189.5,184.5 C 190.657,187.273 191.324,190.273 191.5,193.5C 191.5,194.5 191.5,195.5 191.5,196.5C 188.833,196.5 186.167,196.5 183.5,196.5C 183.704,193.482 184.037,190.482 184.5,187.5C 184.798,183.377 185.631,179.377 187,175.5C 188.604,178.247 189.438,181.247 189.5,184.5 Z"/></g>
<g><path style="opacity:0.634" fill="#424242" d="M 276.5,151.5 C 273.709,162.788 271.042,174.121 268.5,185.5C 267.5,185.5 266.5,185.5 265.5,185.5C 265.5,188.167 265.5,190.833 265.5,193.5C 269.833,193.5 274.167,193.5 278.5,193.5C 278.184,189.475 278.017,185.475 278,181.5C 280.667,180.167 283.333,180.167 286,181.5C 285.983,185.475 285.816,189.475 285.5,193.5C 289.833,193.5 294.167,193.5 298.5,193.5C 292.579,200.642 285.245,202.308 276.5,198.5C 274.651,200.174 272.484,201.174 270,201.5C 266.849,200.907 263.682,200.407 260.5,200C 258.522,197.503 258.022,194.669 259,191.5C 264.375,180.378 268.375,168.712 271,156.5C 273.355,155.308 275.188,153.641 276.5,151.5 Z"/></g>
<g><path style="opacity:0.635" fill="#812729" d="M 207.5,185.5 C 208.117,185.611 208.617,185.944 209,186.5C 209.946,191.163 210.779,195.83 211.5,200.5C 209.409,195.809 208.076,190.809 207.5,185.5 Z"/></g>
<g><path style="opacity:0.537" fill="#a22027" d="M 189.5,184.5 C 189.726,187.249 189.393,189.916 188.5,192.5C 188.846,193.696 189.346,193.696 190,192.5C 190.483,193.448 190.649,194.448 190.5,195.5C 189.178,195.67 188.011,195.337 187,194.5C 186.173,190.459 186.34,186.459 187.5,182.5C 188.182,183.243 188.849,183.909 189.5,184.5 Z"/></g>
<g><path style="opacity:1" fill="#e21c25" d="M 208.5,140.5 C 212.167,140.5 215.833,140.5 219.5,140.5C 219.64,142.124 218.973,143.29 217.5,144C 218.167,144.667 218.833,145.333 219.5,146C 217.216,147.363 217.049,148.863 219,150.5C 218.981,159.445 219.815,168.279 221.5,177C 221.167,177.833 220.833,178.667 220.5,179.5C 219.416,178.335 218.583,177.002 218,175.5C 216.732,180.22 218.232,183.72 222.5,186C 221.194,189.802 221.194,193.635 222.5,197.5C 221.814,200.765 220.814,203.932 219.5,207C 220.309,208.784 220.976,210.617 221.5,212.5C 219.82,215.571 219.153,218.904 219.5,222.5C 221.5,222.833 223.5,223.167 225.5,223.5C 225.957,229.361 226.624,235.194 227.5,241C 226.588,243.888 224.588,245.388 221.5,245.5C 221.5,245.167 221.5,244.833 221.5,244.5C 222.167,244.167 222.833,243.833 223.5,243.5C 224.817,237.654 224.817,231.654 223.5,225.5C 222.15,224.05 220.484,223.383 218.5,223.5C 218.063,216.418 216.396,209.751 213.5,203.5C 212.916,198.499 212.25,193.499 211.5,188.5C 211.697,186.318 212.364,184.318 213.5,182.5C 212.214,180.374 211.381,178.041 211,175.5C 210.667,176.167 210.333,176.833 210,177.5C 209.087,173.75 208.754,170.083 209,166.5C 208.667,166.167 208.333,165.833 208,165.5C 207.667,166.5 207.333,167.5 207,168.5C 205.407,164.684 204.74,160.684 205,156.5C 206.183,157.731 207.349,157.731 208.5,156.5C 207.305,155.033 207.305,153.533 208.5,152C 205.395,150.389 203.061,147.889 201.5,144.5C 202,144.167 202.5,143.833 203,143.5C 204.244,145.576 206.077,146.576 208.5,146.5C 208.5,145.5 208.5,144.5 208.5,143.5C 211.336,143.798 211.836,143.131 210,141.5C 208.893,142.712 208.393,142.379 208.5,140.5 Z"/></g>
<g><path style="opacity:0.384" fill="#532729" d="M 184.5,187.5 C 184.037,190.482 183.704,193.482 183.5,196.5C 186.167,196.5 188.833,196.5 191.5,196.5C 191.5,195.5 191.5,194.5 191.5,193.5C 192.434,194.568 192.768,195.901 192.5,197.5C 189.167,197.5 185.833,197.5 182.5,197.5C 182.159,193.84 182.825,190.507 184.5,187.5 Z"/></g>
<g><path style="opacity:0.604" fill="#762b2e" d="M 211.5,202.5 C 212.167,202.833 212.833,203.167 213.5,203.5C 213.5,205.167 213.5,206.833 213.5,208.5C 212.542,206.698 211.875,204.698 211.5,202.5 Z"/></g>
<g><path style="opacity:0.753" fill="#752227" d="M 169.5,180.5 C 165.984,195.229 162.151,209.896 158,224.5C 155.763,225.056 153.763,226.056 152,227.5C 151.333,232.5 151.333,237.5 152,242.5C 160.749,243.484 169.582,243.817 178.5,243.5C 178.5,241.167 178.5,238.833 178.5,236.5C 180.344,238.279 181.01,240.612 180.5,243.5C 179.833,243.833 179.167,244.167 178.5,244.5C 169.083,244.805 159.75,244.472 150.5,243.5C 150.536,237.074 149.869,230.741 148.5,224.5C 148.5,224.167 148.5,223.833 148.5,223.5C 149.394,220.747 151.061,218.414 153.5,216.5C 152.803,212.963 152.469,209.463 152.5,206C 154.297,200.689 156.464,195.522 159,190.5C 159.878,187.356 160.045,184.356 159.5,181.5C 160.167,181.5 160.833,181.5 161.5,181.5C 162.23,182.712 163.23,183.712 164.5,184.5C 163.833,185.167 163.167,185.833 162.5,186.5C 162.833,188.5 163.167,190.5 163.5,192.5C 162.833,193.167 162.167,193.833 161.5,194.5C 163.007,195.739 164.174,195.405 165,193.5C 165.631,190.607 166.464,187.774 167.5,185C 166.367,182.906 167.034,181.406 169.5,180.5 Z"/></g>
<g><path style="opacity:0.988" fill="#333333" d="M 291.5,224.5 C 291.389,223.883 291.056,223.383 290.5,223C 288.527,222.505 286.527,222.338 284.5,222.5C 284.739,220.533 284.406,218.699 283.5,217C 280.132,216.457 276.799,216.624 273.5,217.5C 273.5,219.833 273.5,222.167 273.5,224.5C 280.732,223.419 287.065,225.086 292.5,229.5C 293.8,234.6 293.8,239.6 292.5,244.5C 290.954,247.2 288.621,249.033 285.5,250C 279.65,251.012 273.984,250.512 268.5,248.5C 265.839,244.628 264.839,240.295 265.5,235.5C 267.869,235.149 270.203,234.982 272.5,235C 273.423,237.041 273.756,239.208 273.5,241.5C 277.167,241.5 280.833,241.5 284.5,241.5C 284.768,238.881 284.435,236.381 283.5,234C 266.361,234.521 261.027,226.687 267.5,210.5C 268.058,209.21 269.058,208.377 270.5,208C 276.959,205.932 283.292,206.266 289.5,209C 293.529,213.961 294.196,219.128 291.5,224.5 Z M 275.5,238.5 C 276.675,238.281 277.675,238.614 278.5,239.5C 276.948,240.798 275.948,240.465 275.5,238.5 Z"/></g>
<g><path style="opacity:0.995" fill="#353535" d="M 333.5,250.5 C 329.167,250.5 324.833,250.5 320.5,250.5C 320.335,247.482 320.502,244.482 321,241.5C 321.667,242.833 322.333,242.833 323,241.5C 323.5,233.507 323.666,225.507 323.5,217.5C 320.342,218.876 317.009,219.542 313.5,219.5C 313.5,215.833 313.5,212.167 313.5,208.5C 314.374,207.475 315.541,206.808 317,206.5C 322.64,207.572 328.307,207.572 334,206.5C 336.671,206.274 339.004,206.941 341,208.5C 341.827,212.541 341.66,216.541 340.5,220.5C 336.94,220.667 334.44,222.334 333,225.5C 332.053,232.698 332.553,239.698 334.5,246.5C 334.489,248.045 334.156,249.378 333.5,250.5 Z"/></g>
<g><path style="opacity:0.995" fill="#333333" d="M 383.5,250.5 C 378.156,250.666 372.823,250.499 367.5,250C 365.333,249.167 363.833,247.667 363,245.5C 361.413,235.908 361.08,226.242 362,216.5C 362.904,213.767 364.404,211.433 366.5,209.5C 366.918,208.778 367.584,208.278 368.5,208C 373.5,207.333 378.5,207.333 383.5,208C 386.333,209.5 388.5,211.667 390,214.5C 391.576,223.089 391.91,231.756 391,240.5C 390.536,245.452 388.036,248.785 383.5,250.5 Z M 371.5,222.5 C 373.39,222.297 374.89,222.963 376,224.5C 376.253,229.039 376.753,233.539 377.5,238C 377.355,238.772 377.022,239.439 376.5,240C 374.866,240.494 373.199,240.66 371.5,240.5C 371.153,234.581 371.153,228.581 371.5,222.5 Z"/></g>
<g><path style="opacity:0.991" fill="#333333" d="M 490.5,208.5 C 490.5,212.167 490.5,215.833 490.5,219.5C 485.246,218.317 479.912,217.65 474.5,217.5C 474.5,219.833 474.5,222.167 474.5,224.5C 477.5,224.5 480.5,224.5 483.5,224.5C 483.5,227.5 483.5,230.5 483.5,233.5C 480.753,233.187 478.086,233.52 475.5,234.5C 476.325,235.386 477.325,235.719 478.5,235.5C 477.402,236.397 477.402,237.23 478.5,238C 475.924,239.383 476.258,240.217 479.5,240.5C 481.993,239.555 484.493,238.555 487,237.5C 488.385,237.514 489.551,237.848 490.5,238.5C 490.5,242.5 490.5,246.5 490.5,250.5C 481.833,250.5 473.167,250.5 464.5,250.5C 465.42,243.545 466.087,236.545 466.5,229.5C 466.087,222.455 465.42,215.455 464.5,208.5C 473.167,208.5 481.833,208.5 490.5,208.5 Z"/></g>
<g><path style="opacity:0.989" fill="#333333" d="M 415.5,206.5 C 422.421,207.297 429.421,207.797 436.5,208C 441.134,211.667 443.134,216.501 442.5,222.5C 442.572,226.146 441.905,229.646 440.5,233C 441.138,236.402 442.305,239.569 444,242.5C 444.801,245.367 444.634,248.034 443.5,250.5C 439.833,250.5 436.167,250.5 432.5,250.5C 432.666,246.486 432.499,242.486 432,238.5C 428.606,237.544 425.106,237.211 421.5,237.5C 423.563,241.427 424.563,245.761 424.5,250.5C 420.167,250.5 415.833,250.5 411.5,250.5C 412.42,243.545 413.087,236.545 413.5,229.5C 413.087,222.455 412.42,215.455 411.5,208.5C 413.483,208.843 414.817,208.176 415.5,206.5 Z M 424.5,220.5 C 428.171,221.184 429.171,223.184 427.5,226.5C 426.311,227.429 424.978,227.762 423.5,227.5C 423.298,225.05 423.631,222.717 424.5,220.5 Z"/></g>
<g><path style="opacity:0.494" fill="#792727" d="M 213.5,209.5 C 215.074,211.102 215.741,213.102 215.5,215.5C 214.262,213.786 213.595,211.786 213.5,209.5 Z"/></g>
<g><path style="opacity:0.683" fill="#454545" d="M 415.5,206.5 C 414.817,208.176 413.483,208.843 411.5,208.5C 412.42,215.455 413.087,222.455 413.5,229.5C 413.087,236.545 412.42,243.545 411.5,250.5C 415.833,250.5 420.167,250.5 424.5,250.5C 420.078,254.585 414.745,256.585 408.5,256.5C 406.575,256.41 405.408,255.41 405,253.5C 406.295,247.03 407.128,240.363 407.5,233.5C 406.921,226.729 406.088,220.063 405,213.5C 407.833,212 410,209.833 411.5,207C 412.793,206.51 414.127,206.343 415.5,206.5 Z"/></g>
<g><path style="opacity:0.11" fill="#51272c" d="M 195.5,215.5 C 189.833,215.5 184.167,215.5 178.5,215.5C 178.768,217.099 178.434,218.432 177.5,219.5C 176.193,218.198 176.193,216.865 177.5,215.5C 183.654,214.183 189.654,214.183 195.5,215.5 Z"/></g>
<g><path style="opacity:0.695" fill="#414141" d="M 267.5,210.5 C 261.027,226.687 266.361,234.521 283.5,234C 284.435,236.381 284.768,238.881 284.5,241.5C 280.833,241.5 277.167,241.5 273.5,241.5C 273.756,239.208 273.423,237.041 272.5,235C 270.203,234.982 267.869,235.149 265.5,235.5C 264.839,240.295 265.839,244.628 268.5,248.5C 273.984,250.512 279.65,251.012 285.5,250C 288.621,249.033 290.954,247.2 292.5,244.5C 292.16,246.679 291.16,248.512 289.5,250C 286.497,251.166 283.83,252.833 281.5,255C 275.833,255.667 270.167,255.667 264.5,255C 260.368,252.389 258.368,248.556 258.5,243.5C 258.875,241.084 259.541,238.75 260.5,236.5C 258.069,229.67 258.236,222.67 261,215.5C 263.287,213.946 265.454,212.279 267.5,210.5 Z M 275.5,238.5 C 275.948,240.465 276.948,240.798 278.5,239.5C 277.675,238.614 276.675,238.281 275.5,238.5 Z"/></g>
<g><path style="opacity:0.667" fill="#434343" d="M 366.5,209.5 C 364.404,211.433 362.904,213.767 362,216.5C 361.08,226.242 361.413,235.908 363,245.5C 363.833,247.667 365.333,249.167 367.5,250C 372.823,250.499 378.156,250.666 383.5,250.5C 380.054,254.729 375.554,256.396 370,255.5C 363.87,256.578 359.203,254.578 356,249.5C 354.196,238.942 354.196,228.942 356,219.5C 358.345,214.918 361.845,211.585 366.5,209.5 Z"/></g>
<g><path style="opacity:0.385" fill="#414141" d="M 291.5,224.5 C 291.629,226.216 291.962,227.883 292.5,229.5C 287.065,225.086 280.732,223.419 273.5,224.5C 273.5,222.167 273.5,219.833 273.5,217.5C 276.799,216.624 280.132,216.457 283.5,217C 284.406,218.699 284.739,220.533 284.5,222.5C 286.527,222.338 288.527,222.505 290.5,223C 291.056,223.383 291.389,223.883 291.5,224.5 Z"/></g>
<g><path style="opacity:0.325" fill="#444444" d="M 370.5,217.5 C 373.85,217.335 377.183,217.502 380.5,218C 381,218.5 381.5,219 382,219.5C 382.667,226.167 382.667,232.833 382,239.5C 380.178,241.045 378.011,241.712 375.5,241.5C 373.359,241.387 371.525,240.72 370,239.5C 369.237,232.118 369.403,224.784 370.5,217.5 Z M 371.5,222.5 C 371.153,228.581 371.153,234.581 371.5,240.5C 373.199,240.66 374.866,240.494 376.5,240C 377.022,239.439 377.355,238.772 377.5,238C 376.753,233.539 376.253,229.039 376,224.5C 374.89,222.963 373.39,222.297 371.5,222.5 Z"/></g>
<g><path style="opacity:0.196" fill="#454545" d="M 421.5,217.5 C 425.226,217.177 428.893,217.511 432.5,218.5C 434.843,227.816 431.176,231.149 421.5,228.5C 421.5,224.833 421.5,221.167 421.5,217.5 Z M 424.5,220.5 C 423.631,222.717 423.298,225.05 423.5,227.5C 424.978,227.762 426.311,227.429 427.5,226.5C 429.171,223.184 428.171,221.184 424.5,220.5 Z"/></g>
<g><path style="opacity:0.166" fill="#494949" d="M 490.5,208.5 C 491.645,212.311 491.812,216.311 491,220.5C 489.491,221.09 487.991,221.756 486.5,222.5C 485.018,226.35 484.184,230.35 484,234.5C 482.301,235.406 480.467,235.739 478.5,235.5C 477.325,235.719 476.325,235.386 475.5,234.5C 478.086,233.52 480.753,233.187 483.5,233.5C 483.5,230.5 483.5,227.5 483.5,224.5C 480.5,224.5 477.5,224.5 474.5,224.5C 474.5,222.167 474.5,219.833 474.5,217.5C 479.912,217.65 485.246,218.317 490.5,219.5C 490.5,215.833 490.5,212.167 490.5,208.5 Z M 477.5,220.5 C 478.776,221.386 478.776,222.386 477.5,223.5C 476.438,222.575 476.438,221.575 477.5,220.5 Z"/></g>
<g><path style="opacity:0.588" fill="#772829" d="M 215.5,217.5 C 217.28,218.99 217.946,220.99 217.5,223.5C 216.542,221.698 215.875,219.698 215.5,217.5 Z"/></g>
<g><path style="opacity:0.523" fill="#414141" d="M 313.5,208.5 C 313.5,212.167 313.5,215.833 313.5,219.5C 317.009,219.542 320.342,218.876 323.5,217.5C 323.666,225.507 323.5,233.507 323,241.5C 322.333,242.833 321.667,242.833 321,241.5C 320.502,244.482 320.335,247.482 320.5,250.5C 324.833,250.5 329.167,250.5 333.5,250.5C 329.024,253.977 323.858,255.977 318,256.5C 316.739,256.241 315.739,255.574 315,254.5C 314.333,251.833 314.333,249.167 315,246.5C 316.728,244.148 317.561,241.481 317.5,238.5C 316.939,234.137 316.273,229.804 315.5,225.5C 312.881,225.768 310.381,225.435 308,224.5C 306.02,217.705 307.853,212.372 313.5,208.5 Z"/></g>
<g><path style="opacity:0.231" fill="#842328" d="M 195.5,215.5 C 197.047,216.768 198.047,218.435 198.5,220.5C 197.549,221.919 197.216,223.585 197.5,225.5C 195.517,225.157 194.183,225.824 193.5,227.5C 192.167,227.5 191.5,228.167 191.5,229.5C 189.938,229.733 188.605,230.4 187.5,231.5C 185.692,230.082 185.025,228.082 185.5,225.5C 184.167,225.5 182.833,225.5 181.5,225.5C 180.833,228.833 180.167,232.167 179.5,235.5C 179.055,232.72 179.055,230.053 179.5,227.5C 176.479,225.35 175.812,222.684 177.5,219.5C 178.434,218.432 178.768,217.099 178.5,215.5C 184.167,215.5 189.833,215.5 195.5,215.5 Z"/></g>
<g><path style="opacity:1" fill="#b52229" d="M 179.5,216.5 C 184.844,216.334 190.177,216.501 195.5,217C 196.979,225.348 195.979,225.515 192.5,217.5C 191.167,220.167 189.833,220.167 188.5,217.5C 185.872,217.537 183.205,217.871 180.5,218.5C 179.702,218.043 179.369,217.376 179.5,216.5 Z"/></g>
<g><path style="opacity:0.31" fill="#68322c" d="M 198.5,220.5 C 198.421,221.93 198.754,223.264 199.5,224.5C 197.956,225.747 196.456,227.08 195,228.5C 194.501,232.821 194.334,237.154 194.5,241.5C 193.514,237.03 193.181,232.363 193.5,227.5C 194.183,225.824 195.517,225.157 197.5,225.5C 197.216,223.585 197.549,221.919 198.5,220.5 Z"/></g>
<g><path style="opacity:1" fill="#b61c24" d="M 181.5,225.5 C 182.833,225.5 184.167,225.5 185.5,225.5C 185.025,228.082 185.692,230.082 187.5,231.5C 186.878,234.776 184.878,236.109 181.5,235.5C 181.5,232.167 181.5,228.833 181.5,225.5 Z"/></g>
<g><path style="opacity:0.682" fill="#b2262b" d="M 213.5,203.5 C 216.396,209.751 218.063,216.418 218.5,223.5C 220.484,223.383 222.15,224.05 223.5,225.5C 224.817,231.654 224.817,237.654 223.5,243.5C 223.5,242.5 223.5,241.5 223.5,240.5C 223.666,236.486 223.499,232.486 223,228.5C 221.229,226.709 219.396,225.043 217.5,223.5C 217.946,220.99 217.28,218.99 215.5,217.5C 215.5,216.833 215.5,216.167 215.5,215.5C 215.741,213.102 215.074,211.102 213.5,209.5C 213.5,209.167 213.5,208.833 213.5,208.5C 213.5,206.833 213.5,205.167 213.5,203.5 Z"/></g>
<g><path style="opacity:0.863" fill="#8d2327" d="M 181.5,225.5 C 181.5,228.833 181.5,232.167 181.5,235.5C 184.878,236.109 186.878,234.776 187.5,231.5C 188.605,230.4 189.938,229.733 191.5,229.5C 191.389,230.117 191.056,230.617 190.5,231C 191.305,235.749 191.805,240.582 192,245.5C 193.458,246.747 194.958,246.747 196.5,245.5C 198.774,245.97 200.774,246.97 202.5,248.5C 203.833,247.5 205.167,246.5 206.5,245.5C 207.833,248.167 209.167,248.167 210.5,245.5C 212.172,248.83 211.505,251.497 208.5,253.5C 207.833,252.833 207.167,252.167 206.5,251.5C 205.452,252.383 204.285,253.05 203,253.5C 196.572,253.789 190.072,253.455 183.5,252.5C 184.108,249.938 183.942,247.271 183,244.5C 182.329,243.748 181.496,243.414 180.5,243.5C 181.01,240.612 180.344,238.279 178.5,236.5C 178.5,235.833 178.833,235.5 179.5,235.5C 180.167,232.167 180.833,228.833 181.5,225.5 Z"/></g>
<g><path style="opacity:0.354" fill="#454545" d="M 443.5,250.5 C 440.747,250.879 438.747,252.379 437.5,255C 429.227,257.408 425.894,254.575 427.5,246.5C 427.444,245.263 426.944,244.263 426,243.5C 425.814,246.036 425.314,248.369 424.5,250.5C 424.563,245.761 423.563,241.427 421.5,237.5C 425.106,237.211 428.606,237.544 432,238.5C 432.499,242.486 432.666,246.486 432.5,250.5C 436.167,250.5 439.833,250.5 443.5,250.5 Z"/></g>
<g><path style="opacity:0.761" fill="#7b1f24" d="M 148.5,224.5 C 149.869,230.741 150.536,237.074 150.5,243.5C 149.957,243.56 149.624,243.893 149.5,244.5C 151.149,247.877 153.149,248.21 155.5,245.5C 156.5,246.167 157.5,246.833 158.5,247.5C 162.04,246.476 165.04,247.476 167.5,250.5C 166.126,251.711 164.626,252.711 163,253.5C 159.936,253.077 156.769,253.077 153.5,253.5C 151.249,250.242 148.583,247.242 145.5,244.5C 146.167,243.833 146.833,243.167 147.5,242.5C 147.5,239.833 147.5,237.167 147.5,234.5C 147.043,233.702 146.376,233.369 145.5,233.5C 146.632,230.449 147.632,227.449 148.5,224.5 Z"/></g>
<g><path style="opacity:0.576" fill="#902225" d="M 223.5,240.5 C 223.5,241.5 223.5,242.5 223.5,243.5C 222.833,243.833 222.167,244.167 221.5,244.5C 212.5,244.5 203.5,244.5 194.5,244.5C 194.5,243.5 194.5,242.5 194.5,241.5C 203.24,243.592 212.24,244.092 221.5,243C 222.066,242.005 222.733,241.172 223.5,240.5 Z"/></g>
<g><path style="opacity:1" fill="#b8242b" d="M 193.5,227.5 C 193.181,232.363 193.514,237.03 194.5,241.5C 194.5,242.5 194.5,243.5 194.5,244.5C 203.5,244.5 212.5,244.5 221.5,244.5C 221.5,244.833 221.5,245.167 221.5,245.5C 218.5,245.5 215.5,245.5 212.5,245.5C 212.698,247.575 212.865,249.575 213,251.5C 210.694,255.366 207.527,256.366 203.5,254.5C 197.491,254.666 191.491,254.499 185.5,254C 184.584,253.722 183.918,253.222 183.5,252.5C 190.072,253.455 196.572,253.789 203,253.5C 204.285,253.05 205.452,252.383 206.5,251.5C 207.167,252.167 207.833,252.833 208.5,253.5C 211.505,251.497 212.172,248.83 210.5,245.5C 209.167,248.167 207.833,248.167 206.5,245.5C 205.167,246.5 203.833,247.5 202.5,248.5C 200.774,246.97 198.774,245.97 196.5,245.5C 194.958,246.747 193.458,246.747 192,245.5C 191.805,240.582 191.305,235.749 190.5,231C 191.056,230.617 191.389,230.117 191.5,229.5C 191.5,228.167 192.167,227.5 193.5,227.5 Z"/></g>
<g><path style="opacity:0.723" fill="#454545" d="M 490.5,208.5 C 481.833,208.5 473.167,208.5 464.5,208.5C 465.42,215.455 466.087,222.455 466.5,229.5C 466.087,236.545 465.42,243.545 464.5,250.5C 473.167,250.5 481.833,250.5 490.5,250.5C 490.5,246.5 490.5,242.5 490.5,238.5C 491.117,238.611 491.617,238.944 492,239.5C 492.812,243.67 492.312,247.67 490.5,251.5C 487.643,252.196 485.143,253.529 483,255.5C 481.883,255.335 480.716,255.002 479.5,254.5C 473.347,255.187 467.18,255.854 461,256.5C 458.709,255.876 457.543,254.376 457.5,252C 459.951,246.634 460.951,240.967 460.5,235C 460.473,227.646 459.64,220.479 458,213.5C 461.025,211.468 463.692,209.135 466,206.5C 474.248,206.749 482.415,207.416 490.5,208.5 Z"/></g>
<g><path style="opacity:0.98" fill="#6b2126" d="M 145.5,233.5 C 146.376,233.369 147.043,233.702 147.5,234.5C 147.5,237.167 147.5,239.833 147.5,242.5C 146.833,243.167 146.167,243.833 145.5,244.5C 148.583,247.242 151.249,250.242 153.5,253.5C 149.608,253.302 145.608,253.136 141.5,253C 140.572,252.612 139.905,251.945 139.5,251C 140.663,246.678 140.83,242.178 140,237.5C 142.311,236.603 144.144,235.27 145.5,233.5 Z"/></g>
<g><path style="opacity:1" fill="#de1c25" d="M 221.5,245.5 C 221.232,248.119 221.565,250.619 222.5,253C 217.331,255.467 217.331,257.8 222.5,260C 220.602,260.9 218.936,262.066 217.5,263.5C 218.025,264.192 218.692,264.692 219.5,265C 223.486,265.499 227.486,265.666 231.5,265.5C 232.833,265.5 234.167,265.5 235.5,265.5C 235.5,265.833 235.5,266.167 235.5,266.5C 225.833,266.5 216.167,266.5 206.5,266.5C 204.162,264.96 201.495,264.294 198.5,264.5C 198.559,261.951 197.559,259.951 195.5,258.5C 198.548,257.537 201.214,256.204 203.5,254.5C 207.527,256.366 210.694,255.366 213,251.5C 212.865,249.575 212.698,247.575 212.5,245.5C 215.5,245.5 218.5,245.5 221.5,245.5 Z"/></g>
<g><path style="opacity:1" fill="#a11c22" d="M 167.5,254.5 C 165.097,255.131 162.764,256.131 160.5,257.5C 161.145,258.732 161.311,260.065 161,261.5C 162.171,262.893 163.671,263.727 165.5,264C 165.043,264.414 164.709,264.914 164.5,265.5C 171.468,266.497 178.468,266.83 185.5,266.5C 192.5,266.5 199.5,266.5 206.5,266.5C 216.167,266.5 225.833,266.5 235.5,266.5C 236.391,265.89 237.391,265.557 238.5,265.5C 237.129,267.141 235.296,268.141 233,268.5C 231.174,267.327 229.341,267.327 227.5,268.5C 199.664,267.677 171.664,267.011 143.5,266.5C 142.402,265.603 142.402,264.77 143.5,264C 144.938,263.781 146.271,263.281 147.5,262.5C 143.276,261.384 142.443,259.051 145,255.5C 146.297,256.784 147.464,256.617 148.5,255C 154.825,254.5 161.158,254.334 167.5,254.5 Z"/></g>
<g><path style="opacity:1" fill="#c51a22" d="M 183.5,252.5 C 183.918,253.222 184.584,253.722 185.5,254C 191.491,254.499 197.491,254.666 203.5,254.5C 201.214,256.204 198.548,257.537 195.5,258.5C 197.559,259.951 198.559,261.951 198.5,264.5C 201.495,264.294 204.162,264.96 206.5,266.5C 199.5,266.5 192.5,266.5 185.5,266.5C 183.727,265.108 181.727,263.941 179.5,263C 179.833,262.667 180.167,262.333 180.5,262C 176.798,262.298 175.131,260.631 175.5,257C 175.748,255.284 176.415,253.784 177.5,252.5C 175.205,251.864 173.539,250.531 172.5,248.5C 174.816,247.068 177.316,246.068 180,245.5C 179.958,248.601 181.125,250.934 183.5,252.5 Z"/></g>
<g><path style="opacity:1" fill="#b01922" d="M 180.5,243.5 C 181.496,243.414 182.329,243.748 183,244.5C 183.942,247.271 184.108,249.938 183.5,252.5C 181.125,250.934 179.958,248.601 180,245.5C 177.316,246.068 174.816,247.068 172.5,248.5C 173.539,250.531 175.205,251.864 177.5,252.5C 176.415,253.784 175.748,255.284 175.5,257C 175.131,260.631 176.798,262.298 180.5,262C 180.167,262.333 179.833,262.667 179.5,263C 181.727,263.941 183.727,265.108 185.5,266.5C 178.468,266.83 171.468,266.497 164.5,265.5C 164.709,264.914 165.043,264.414 165.5,264C 163.671,263.727 162.171,262.893 161,261.5C 161.311,260.065 161.145,258.732 160.5,257.5C 162.764,256.131 165.097,255.131 167.5,254.5C 168.091,253.849 168.757,253.182 169.5,252.5C 168.167,251.167 168.167,249.833 169.5,248.5C 168.833,247.833 168.167,247.167 167.5,246.5C 171.313,245.833 174.979,245.166 178.5,244.5C 179.167,244.167 179.833,243.833 180.5,243.5 Z"/></g>
</svg>
